<svg xmlns="http://www.w3.org/2000/svg" xmlns:xlink="http://www.w3.org/1999/xlink" width="500" zoomAndPan="magnify" viewBox="0 0 375 374.999991" height="500" preserveAspectRatio="xMidYMid meet" version="1.0"><defs><g/></defs><g fill="#940dff" fill-opacity="0.7804"><g transform="translate(135.417021, 234.260224)"><g><path d="M 121.84375 -64.6875 L 86.53125 0 L 64.09375 0 L 58 -35.203125 L 39.03125 0 L 16.828125 0 L 5.84375 -64.6875 L 26.609375 -64.6875 L 32.46875 -25.78125 L 53.828125 -64.6875 L 73.28125 -64.6875 L 79.25 -25.78125 L 100.609375 -64.6875 Z M 121.84375 -64.6875 "/></g></g></g><g fill="#ffffff" fill-opacity="1"><g transform="translate(130.142376, 228.985576)"><g><path d="M 121.84375 -64.6875 L 86.53125 0 L 64.09375 0 L 58 -35.203125 L 39.03125 0 L 16.828125 0 L 5.84375 -64.6875 L 26.609375 -64.6875 L 32.46875 -25.78125 L 53.828125 -64.6875 L 73.28125 -64.6875 L 79.25 -25.78125 L 100.609375 -64.6875 Z M 121.84375 -64.6875 "/></g></g></g></svg>